<svg width="512" height="512" viewBox="0 0 512 512" fill="none" xmlns="http://www.w3.org/2000/svg">
<path d="M256 8C163.36 8 88 83.368 88 176V192C88 193.36 88.344 194.696 89.008 195.88L168 338.072V496C168 500.424 171.584 504 176 504H336C340.416 504 344 500.424 344 496V338.072L422.992 195.888C423.656 194.696 424 193.36 424 192V176C424 83.368 348.64 8 256 8ZM256 24C332.616 24 396.008 81.04 406.352 154.856C401.184 150.624 395.104 147.496 388.48 145.704C374.472 84.192 319.608 40 256 40V56C310.392 56 357.584 92.576 371.704 144.216C356.808 145.544 343.856 153.688 336 165.52C327.392 152.56 312.688 144 296 144C279.312 144 264.608 152.568 256 165.52C247.392 152.56 232.688 144 216 144C199.312 144 184.608 152.568 176 165.52C167.392 152.56 152.688 144 136 144C124.496 144 113.928 148.08 105.648 154.856C115.992 81.04 179.384 24 256 24ZM331.296 328H306.528L343.712 194.144C343.904 193.448 344 192.728 344 192C344 174.352 358.352 160 376 160C393.048 160 406.896 173.432 407.824 190.248L331.296 328ZM104.176 190.248C105.104 173.432 118.952 160 136 160C153.648 160 168 174.352 168 192C168 192.728 168.096 193.448 168.296 194.144L205.48 328H180.712L104.176 190.248ZM222.08 328L184.016 190.968C184.56 173.8 198.696 160 216 160C233.648 160 248 174.352 248 192V328H222.08ZM264 328V192C264 174.352 278.352 160 296 160C313.304 160 327.44 173.8 327.984 190.968L289.92 328H264Z" fill="#a8855d"/>
<path d="M240.992 56.928L239.008 41.056C233.248 41.776 227.528 42.864 222.008 44.28L226 59.784C230.864 58.52 235.912 57.56 240.992 56.928V56.928Z" fill="#a8855d"/>
<path d="M177 414.499C177 458.334 212.663 494 256.499 494C300.334 494 335.997 458.334 335.997 414.499C335.997 370.663 300.334 335 256.499 335C212.663 335 177 370.663 177 414.499ZM321.544 414.499C321.544 450.365 292.365 479.544 256.499 479.544C220.632 479.544 191.453 450.365 191.453 414.499C191.453 378.635 220.632 349.456 256.499 349.456C292.365 349.456 321.544 378.635 321.544 414.499Z" fill="#292929"/>
<path d="M247.826 371.137V379.606C239.414 382.588 233.371 390.622 233.371 400.046C233.371 411.999 243.096 421.728 255.053 421.728C259.037 421.728 262.279 424.97 262.279 428.954C262.279 432.939 259.037 436.18 255.053 436.18C251.966 436.18 248.631 434.24 245.669 430.713C243.099 427.658 238.541 427.265 235.486 429.832C232.43 432.402 232.035 436.96 234.605 440.015C238.468 444.61 243.011 447.812 247.826 449.427V457.862C247.826 461.855 251.062 465.089 255.053 465.089C259.043 465.089 262.279 461.855 262.279 457.862V449.393C270.691 446.409 276.735 438.375 276.735 428.954C276.735 416.998 267.009 407.272 255.053 407.272C251.068 407.272 247.826 404.03 247.826 400.046C247.826 396.061 251.068 392.817 255.053 392.817C257.614 392.817 260.316 394.124 262.869 396.595C265.738 399.371 270.313 399.295 273.089 396.428C275.865 393.559 275.789 388.984 272.922 386.209C269.254 382.659 265.583 380.651 262.279 379.555V371.137C262.279 367.144 259.043 363.908 255.053 363.908C251.062 363.908 247.826 367.144 247.826 371.137V371.137Z" fill="#292929"/>
</svg>
