<svg width="512" height="489" viewBox="0 0 512 489" fill="none" xmlns="http://www.w3.org/2000/svg">
<path d="M300.5 0C241.14 0 193 48.141 193 107.5C193 166.859 241.14 215 300.5 215C359.86 215 408 166.859 408 107.5C408 48.141 359.86 0 300.5 0V0ZM327.121 148.603C322.633 154.416 316.513 158.293 309.199 160.333V174.688H296.96V160.742C288.465 159.315 281.735 156.254 277.145 151.666C272.556 147.077 269.087 139.935 266.946 130.349L281.735 127.288C283.775 134.122 286.223 138.915 289.079 141.873C292.138 144.625 296.218 146.055 301.216 146.055C306.112 146.055 310.295 144.423 313.557 141.261C316.821 138.1 318.452 134.122 318.452 129.124C318.452 124.738 317.126 121.169 314.372 118.414C312.943 117.086 310.904 115.659 308.253 114.026C305.498 112.394 302.133 110.66 297.849 108.723C289.18 104.846 283.469 101.278 280.715 98.0126C276.33 93.1161 274.187 87.3026 274.187 80.469C274.187 77.2061 274.697 74.2467 275.716 71.4938C276.736 68.741 278.266 66.1905 280.205 63.9456C282.144 61.7008 284.59 59.7637 287.445 58.031C290.301 56.3996 293.565 55.0737 297.98 54.1547V41.0734H308.179V53.9502C314.168 54.766 318.452 56.5007 321.817 59.1524C325.182 61.8041 328.345 65.8849 331.405 71.2894L318.351 78.6331C314.372 71.4938 309.273 67.9231 302.951 67.9231C298.972 67.9231 295.71 69.0445 293.16 71.3905C290.611 73.7366 289.285 76.5927 289.285 80.1613C289.285 83.323 290.305 85.9747 292.446 88.1163C294.486 90.1567 298.667 92.6039 304.889 95.46C310.295 97.9072 314.783 100.253 318.353 102.395C321.922 104.536 324.573 106.678 326.308 108.718C331.407 114.226 333.856 120.754 333.856 128.505C334.056 136.057 331.711 142.79 327.121 148.603V148.603Z" fill="#a8855d"/>
<path d="M115.151 485.724C119.026 489.63 125.335 489.673 129.261 485.806L177.729 438.056C185.964 429.821 188.468 417.63 184.847 407.032L195.272 396.978C200.886 391.556 208.276 388.567 216.089 388.567H348.991C372.569 388.567 394.854 379.513 411.749 363.071C412.444 362.396 406.472 369.431 502.417 254.759C516.647 237.923 514.519 212.642 497.667 198.396C480.921 184.282 455.835 186.31 441.565 202.857L382.573 263.489C375.124 254.321 363.765 248.607 351.491 248.607H240.011C224.147 241.97 207.315 238.61 189.948 238.61C141.808 238.61 99.7725 260.845 77.2139 302.532C67.71 300.732 57.6865 303.607 50.4756 310.817L2.917 358.517C-0.965814 362.411 -0.973626 368.712 2.90137 372.618L115.151 485.724ZM189.944 258.603C205.257 258.603 220.062 261.685 233.956 267.763C235.222 268.317 236.585 268.603 237.964 268.603H351.491C362.331 268.603 371.487 277.442 371.487 288.595C371.487 299.622 362.519 308.591 351.491 308.591H269.925C264.405 308.591 259.929 313.067 259.929 318.587C259.929 324.11 264.405 328.583 269.925 328.583H351.491C373.542 328.583 391.479 310.646 391.479 288.595C391.479 286.837 391.354 285.095 391.128 283.368C448.194 224.708 456.241 216.466 456.585 216.056C463.71 207.646 476.358 206.579 484.772 213.673C493.194 220.794 494.261 233.435 487.116 241.892L397.448 349.087C384.354 361.657 367.163 368.575 348.991 368.575H216.089C203.065 368.575 190.737 373.556 181.386 382.591L172.89 390.79L94.5693 312.474C112.874 278.134 147.222 258.603 189.944 258.603ZM64.624 324.946C67.9209 321.649 72.9834 321.056 77.0029 323.54C78.7334 324.595 73.7646 320.071 163.593 409.774C167.589 413.771 167.374 420.138 163.647 423.864L122.327 464.571L24.0967 365.591L64.624 324.946Z" fill="#a8855d"/>
</svg>
